<?xml version="1.0" standalone="no"?>
<!DOCTYPE svg PUBLIC "-//W3C//DTD SVG 20010904//EN"
 "http://www.w3.org/TR/2001/REC-SVG-20010904/DTD/svg10.dtd">
<svg version="1.0" xmlns="http://www.w3.org/2000/svg"
 width="2000.000000pt" height="2000.000000pt" viewBox="0 0 2000.000000 2000.000000"
 preserveAspectRatio="xMidYMid meet">
<metadata>
Created by potrace 1.14, written by Peter Selinger 2001-2017
</metadata>
<g transform="translate(0.000000,2000.000000) scale(0.100000,-0.100000)"
fill="#000000" stroke="none">
<path d="M8886 16222 c-2 -1 -527 -5 -1167 -7 -1773 -7 -3205 -18 -3251 -24
-5 -1 -8 -310 -8 -687 0 -377 3 -683 8 -681 14 9 326 23 692 32 241 5 466 13
569 20 l63 5 -6 -98 c-4 -53 -8 -124 -11 -157 -4 -59 -10 -159 -20 -345 -3
-52 -8 -126 -10 -165 -3 -38 -7 -134 -10 -212 l-6 -141 78 -38 c467 -227 850
-589 1054 -997 28 -56 55 -109 60 -119 43 -86 126 -347 145 -458 2 -14 8 -45
14 -70 15 -73 29 -170 36 -245 3 -38 8 -86 10 -105 5 -58 5 -431 -1 -485 -4
-46 -8 -74 -21 -175 -48 -368 -247 -818 -502 -1135 -55 -68 -261 -279 -332
-340 -120 -103 -336 -255 -442 -310 l-37 -19 34 -46 c36 -48 300 -435 325
-475 8 -14 109 -165 225 -337 356 -531 495 -701 635 -777 39 -21 78 -30 170
-41 86 -11 174 -34 198 -53 9 -7 12 117 12 615 0 528 2 633 15 683 48 182 197
328 378 370 93 22 844 21 926 -1 191 -51 344 -220 376 -416 12 -73 27 -145 36
-174 9 -29 13 -32 47 -29 47 3 63 -5 115 -62 23 -25 47 -51 52 -57 6 -6 28
-33 50 -61 22 -27 43 -52 46 -55 20 -17 147 -202 324 -469 l203 -308 74 -21
c140 -42 214 -53 383 -59 277 -9 434 31 609 154 59 42 132 136 152 197 20 59
15 186 -9 232 -49 94 -242 242 -450 342 -95 47 -431 192 -557 242 -30 12 -77
32 -105 44 -27 13 -61 27 -75 31 -54 16 -361 149 -555 240 -695 325 -1131 612
-1480 976 -379 394 -618 880 -689 1399 -25 186 -28 220 -28 402 -1 231 9 330
54 528 24 107 23 106 39 160 7 25 13 47 14 50 4 19 62 183 76 218 10 23 19 44
19 47 4 19 126 245 165 305 101 158 268 360 388 469 78 71 97 86 162 135 39
29 89 65 113 81 23 15 42 33 43 39 0 6 2 20 4 31 2 11 6 63 9 115 3 52 8 106
10 120 3 14 7 43 10 65 35 266 133 490 275 630 114 111 200 150 456 204 200
43 558 45 860 6 22 -3 67 -8 100 -11 33 -3 62 -7 65 -9 3 -2 30 -6 60 -10 237
-29 546 -140 796 -286 190 -112 376 -279 511 -460 36 -49 68 -89 70 -89 3 0
23 11 47 25 53 31 115 53 174 61 68 10 887 11 952 1 205 -30 370 -176 421
-374 18 -73 19 -121 19 -1327 0 -1086 -2 -1260 -16 -1316 -42 -180 -194 -332
-375 -375 -92 -21 -838 -22 -919 0 -66 17 -166 66 -200 97 -55 50 -58 51 -70
29 -10 -19 0 -26 137 -94 308 -153 493 -264 738 -441 200 -144 436 -359 566
-516 30 -35 60 -70 66 -78 7 -7 19 -22 27 -34 15 -21 15 -21 73 22 100 75 205
161 298 244 105 94 305 297 305 310 0 5 -14 32 -32 60 -190 308 -302 620 -353
981 -32 221 -36 535 -10 705 11 72 18 117 21 135 2 11 7 34 10 50 19 106 120
431 153 493 6 9 33 63 60 120 163 332 456 666 773 881 l47 31 -53 155 c-146
418 -348 738 -671 1061 -274 274 -548 468 -920 649 -254 124 -623 259 -875
320 -54 13 -319 76 -335 79 -59 13 -132 28 -150 31 -11 2 -60 11 -110 20 -49
9 -106 19 -125 21 -19 3 -62 9 -95 14 -33 5 -82 12 -110 15 -27 4 -61 8 -75
10 -63 9 -173 21 -270 30 -36 3 -87 8 -115 10 -27 2 -88 7 -135 11 -47 3 -116
8 -155 11 -78 5 -1354 11 -1359 5z"/>
<path d="M10097 13744 c-1 -1 -79 -4 -174 -8 -94 -3 -177 -8 -185 -10 -7 -3
-42 -7 -78 -10 -156 -13 -419 -71 -576 -127 -178 -63 -387 -166 -529 -261
-135 -91 -303 -242 -375 -337 -14 -18 -32 -40 -41 -49 -34 -35 -129 -181 -177
-272 -100 -187 -185 -453 -208 -648 -3 -24 -7 -61 -9 -81 -13 -108 0 -450 20
-531 0 -3 4 -27 9 -55 4 -27 14 -77 23 -110 8 -33 17 -71 19 -84 21 -111 156
-403 258 -555 183 -274 426 -507 766 -733 129 -85 165 -107 325 -195 77 -42
531 -268 538 -268 3 0 47 -20 99 -43 51 -24 156 -70 233 -101 77 -32 149 -61
160 -66 11 -5 88 -37 170 -71 378 -154 617 -262 712 -322 24 -15 45 -27 48
-27 9 0 161 -106 220 -153 265 -216 364 -413 358 -717 -6 -257 -158 -521 -397
-691 -182 -129 -386 -203 -646 -235 -64 -8 -348 -8 -388 0 -15 3 -52 8 -82 11
-306 34 -633 170 -890 368 -99 77 -207 181 -261 252 -13 17 -26 32 -30 35 -3
3 -28 37 -56 75 -144 204 -259 469 -330 764 -26 111 -27 113 -38 178 l-7 42
-339 0 -339 0 0 -1200 0 -1199 396 0 395 0 -6 83 c-3 45 -8 107 -10 137 -2 30
-7 90 -10 133 l-6 78 53 -31 c29 -17 112 -60 184 -95 331 -162 619 -255 1019
-330 322 -60 813 -62 1130 -5 28 5 66 11 85 14 441 64 944 286 1260 554 125
106 216 206 358 392 32 42 126 211 161 290 63 142 111 302 131 440 6 41 14 86
16 100 20 98 6 518 -20 607 -3 10 -7 34 -10 53 -6 36 -47 182 -67 235 -49 128
-181 357 -271 469 -195 245 -385 416 -684 617 -241 162 -445 271 -842 453 -68
31 -125 56 -127 56 -3 0 -30 12 -62 26 -75 34 -96 43 -228 97 -286 117 -739
329 -925 433 -36 20 -74 42 -85 48 -200 112 -426 310 -520 456 -68 105 -100
186 -131 330 -3 14 -8 72 -11 130 -17 342 158 611 517 791 174 88 367 130 600
132 179 1 280 -8 425 -37 136 -28 310 -91 408 -148 26 -15 50 -28 52 -28 9 0
135 -87 185 -128 346 -284 571 -718 680 -1313 l12 -66 339 0 339 0 0 1193 0
1194 -401 0 -400 0 6 -67 c3 -38 8 -81 10 -98 2 -16 7 -61 10 -100 3 -38 8
-89 11 -113 l6 -43 -76 50 c-95 62 -282 157 -402 205 -172 68 -465 149 -659
181 -24 4 -159 25 -195 30 -99 15 -434 36 -443 29z"/>
<path d="M16237 13744 c-1 -1 -76 -4 -167 -8 -91 -3 -176 -8 -190 -10 -14 -2
-54 -7 -90 -11 -225 -22 -536 -99 -705 -174 -197 -88 -443 -232 -543 -318
-206 -175 -393 -420 -497 -652 -47 -103 -105 -270 -119 -341 -3 -14 -12 -56
-20 -95 -8 -38 -18 -86 -21 -105 -11 -54 -14 -428 -5 -495 5 -33 11 -82 15
-110 15 -118 42 -235 86 -369 30 -91 145 -338 161 -344 4 -2 8 -8 8 -13 0 -15
111 -177 178 -260 158 -195 405 -411 667 -581 93 -61 275 -169 337 -199 443
-223 485 -243 683 -329 176 -77 171 -75 285 -120 58 -22 114 -45 125 -50 11
-5 92 -39 180 -75 456 -189 672 -299 814 -414 25 -20 56 -43 69 -53 47 -32
175 -164 215 -223 133 -195 170 -478 92 -710 -108 -319 -417 -576 -799 -665
-341 -79 -743 -51 -1086 77 -97 36 -249 108 -298 141 -15 11 -47 32 -72 48
-44 28 -93 64 -155 113 -73 59 -235 234 -295 319 -75 107 -150 241 -202 362
-38 89 -104 277 -111 320 -3 14 -14 61 -25 105 -11 44 -25 108 -32 142 l-13
63 -336 -3 -336 -2 -1 -1197 -1 -1198 394 0 395 0 -6 98 c-4 53 -9 124 -11
157 -3 33 -7 86 -10 118 l-4 59 47 -28 c88 -52 252 -132 397 -195 259 -111
664 -220 945 -254 25 -3 61 -8 80 -10 162 -21 545 -21 725 0 173 21 287 38
365 55 25 5 56 12 70 15 266 51 656 212 892 368 430 284 726 691 834 1147 41
174 52 282 49 500 -2 107 -6 209 -8 225 -3 17 -10 59 -16 95 -96 590 -550
1132 -1312 1563 -216 122 -565 287 -929 437 -522 216 -943 422 -1179 578 -47
31 -88 59 -91 62 -3 3 -36 31 -75 62 -253 205 -373 436 -380 734 -3 115 12
210 47 305 107 283 438 518 823 584 198 33 535 20 720 -29 6 -2 24 -6 40 -10
52 -13 130 -40 139 -48 6 -4 16 -8 23 -8 22 0 204 -93 274 -140 97 -65 155
-115 249 -210 101 -103 113 -117 195 -240 116 -175 228 -421 275 -605 5 -16
17 -64 29 -105 11 -41 22 -86 24 -100 22 -117 38 -193 42 -200 3 -4 156 -8
340 -8 l335 1 0 1193 0 1194 -401 0 -400 0 5 -47 c3 -27 8 -73 11 -103 3 -30
7 -75 10 -100 3 -25 7 -74 10 -109 l5 -64 -32 25 c-69 52 -233 142 -368 201
-243 107 -619 205 -935 242 -27 3 -59 8 -70 10 -36 7 -351 24 -358 19z"/>
<path d="M3047 13594 c-1 -1 -513 -4 -1137 -7 -624 -4 -1135 -6 -1135 -7 0 0
0 -178 0 -395 l0 -395 80 5 c44 2 168 7 275 10 107 3 244 8 304 10 l109 4 -7
-112 c-3 -62 -9 -155 -12 -207 -3 -52 -8 -113 -11 -135 -3 -22 -6 -1041 -8
-2265 -1 -1224 -5 -2274 -9 -2334 -8 -136 -36 -281 -71 -367 -30 -76 -102
-170 -160 -211 -79 -55 -271 -100 -450 -107 l-40 -1 0 -338 0 -337 1523 -2
1522 -1 0 395 0 395 -262 -7 c-259 -6 -392 -11 -537 -19 l-73 -5 7 57 c12 90
13 109 20 257 12 257 14 356 14 1038 l1 677 268 0 267 0 50 -56 c28 -31 68
-80 89 -108 33 -42 294 -436 333 -501 24 -42 198 -322 228 -370 33 -52 178
-285 206 -333 297 -498 649 -1029 790 -1192 65 -75 160 -169 207 -204 l33 -24
845 0 844 0 1 46 c0 58 0 532 0 590 -1 41 -2 42 -33 42 -45 0 -212 36 -254 55
-19 8 -51 22 -71 32 -118 51 -282 192 -417 357 -120 146 -182 235 -544 775
-179 267 -350 520 -380 561 -161 220 -369 415 -550 512 l-83 45 88 27 c89 27
252 86 310 112 17 8 33 14 36 14 12 0 204 94 289 141 198 111 365 237 521 393
298 300 481 668 541 1091 14 96 15 479 2 595 -31 280 -113 557 -217 735 -21
37 -39 69 -39 72 0 18 -159 213 -238 292 -263 264 -589 439 -1047 561 -86 23
-202 49 -250 56 -16 3 -41 7 -55 10 -14 3 -38 8 -55 11 -16 2 -55 8 -85 13
-30 5 -77 12 -105 15 -27 3 -63 7 -80 10 -16 2 -59 7 -95 10 -36 3 -92 8 -125
12 -50 5 -1162 12 -1168 7z m888 -729 c28 -3 75 -10 105 -15 30 -5 70 -12 87
-15 132 -22 372 -129 488 -218 44 -34 195 -187 195 -198 0 -4 6 -14 14 -22 21
-21 94 -143 121 -201 45 -98 86 -243 101 -356 2 -19 8 -64 13 -100 10 -69 7
-505 -3 -580 -51 -365 -130 -581 -283 -773 -68 -85 -183 -183 -282 -241 -126
-74 -329 -148 -466 -169 -31 -5 -135 -22 -195 -33 -77 -13 -516 -12 -620 1
-154 19 -194 24 -208 24 -11 1 -12 218 -9 1174 2 644 7 1190 11 1212 20 109
51 216 79 269 104 196 260 258 627 251 96 -2 198 -7 225 -10z"/>
<path d="M13195 6988 c-131 -200 -388 -473 -578 -614 -360 -268 -824 -474
-1257 -558 -14 -3 -52 -10 -85 -16 -33 -7 -67 -14 -75 -15 -8 -2 -39 -6 -67
-10 -29 -4 -53 -11 -53 -14 0 -7 199 -331 329 -536 71 -111 356 -539 416 -625
287 -409 457 -607 675 -785 l67 -55 1474 0 1475 0 0 580 c0 319 -3 580 -6 581
-3 0 -21 2 -40 4 -100 10 -151 17 -215 31 -38 8 -79 17 -90 19 -163 35 -412
163 -576 295 -147 118 -337 315 -476 494 -20 24 -31 29 -80 32 -32 2 -69 6
-83 8 -198 31 -369 191 -415 388 -8 36 -14 126 -15 234 l-1 176 -117 175 c-64
96 -128 192 -142 214 -14 21 -28 39 -31 39 -4 0 -19 -19 -34 -42z"/>
<path d="M7431 5972 c-30 -19 -79 -44 -110 -56 -55 -21 -69 -21 -843 -24 -434
-1 -788 -6 -789 -10 0 -4 -2 -14 -4 -22 -3 -15 -8 -48 -20 -124 -4 -22 -20
-85 -37 -140 -77 -259 -229 -456 -418 -539 -88 -39 -283 -88 -411 -103 -30 -3
-56 -8 -59 -9 -5 -3 -172 -16 -245 -19 l-30 -1 -3 -583 -2 -582 2640 0 2640 0
-2 678 -3 677 -180 -1 c-163 -1 -372 -6 -800 -20 -167 -5 -235 -9 -409 -19
l-119 -8 7 54 c13 95 14 102 21 189 13 152 14 172 20 314 4 77 8 143 11 147
11 19 -35 24 -221 25 -110 0 -222 4 -249 8 -102 15 -235 89 -302 169 l-29 34
-54 -35z"/>
</g>
</svg>
